<svg width="10" height="10" viewBox="0 0 10 10" fill="none" xmlns="http://www.w3.org/2000/svg">
<path fill-rule="evenodd" clip-rule="evenodd" d="M2.08337 3.86042C2.08337 2.24792 3.38754 0.943756 5.00004 0.943756C6.61254 0.943756 7.91671 2.24792 7.91671 3.86042C7.91671 5.59792 6.07504 7.99376 5.32087 8.90626C5.15421 9.10625 4.85004 9.10625 4.68337 8.90626C3.92504 7.99376 2.08337 5.59792 2.08337 3.86042ZM3.95837 3.86042C3.95837 4.43542 4.42504 4.90209 5.00004 4.90209C5.57504 4.90209 6.04171 4.43542 6.04171 3.86042C6.04171 3.28542 5.57504 2.81876 5.00004 2.81876C4.42504 2.81876 3.95837 3.28542 3.95837 3.86042Z" fill="#0F9D58"/>
</svg>
